<?xml version="1.0" encoding="utf-8"?>
<!-- Generator: Adobe Illustrator 16.0.0, SVG Export Plug-In . SVG Version: 6.00 Build 0)  -->
<!DOCTYPE svg PUBLIC "-//W3C//DTD SVG 1.1//EN" "http://www.w3.org/Graphics/SVG/1.1/DTD/svg11.dtd">
<svg version="1.1" id="Layer_1" xmlns="http://www.w3.org/2000/svg" xmlns:xlink="http://www.w3.org/1999/xlink" x="0px" y="0px"
	 width="561.744px" height="115.387px" viewBox="0 0 561.744 115.387" enable-background="new 0 0 561.744 115.387"
	 xml:space="preserve">
<g>
	<g>
		<g>
			<defs>
				<path id="SVGID_1_" d="M42.694,8.884c8.21,12.118,28.882,31.8,17.038,46.749C59.322,43.295,59.732,34.422,42.694,8.884
					 M0,74.717c0,14.576,9.513,29.514,24.175,36.547c-6.554-7.07-8.08-15.697-6.77-22.904c2.29-12.562,12.777-21.677,24.941-21.677
					c11.12,0,19.893-4.671,24.066-12.816c3.772-7.356,2.971-16.313-2.079-24.282c-0.071-0.1-0.137-0.2-0.206-0.301
					C63.846,28.848,47.803,6.77,42.445,0C29.114,16.838,0,54.723,0,74.717"/>
			</defs>
			<use xlink:href="#SVGID_1_"  overflow="visible" fill="#306E86"/>
			<clipPath id="SVGID_2_">
				<use xlink:href="#SVGID_1_"  overflow="visible"/>
			</clipPath>
		</g>
		<g>
			<defs>
				<path id="SVGID_3_" d="M25.333,92.713c2.878,9.701,13.692,10.768,10.396,14.4c-0.547,0.605-1.192,0.885-1.884,0.885
					C30.318,107.998,25.507,100.811,25.333,92.713 M71.373,56.408c-5.09,9.924-15.938,15.846-29.026,15.846
					c-10.729,0-17.907,8.605-19.456,17.107c-2.428,13.299,6.865,26.002,17.761,26.002c27.362,0,44.239-20.652,44.239-40.646
					c0-7.783-4.423-18.281-10.598-29.191C74.084,49.299,73.125,52.982,71.373,56.408"/>
			</defs>
			<use xlink:href="#SVGID_3_"  overflow="visible" fill="#B19354"/>
			<clipPath id="SVGID_4_">
				<use xlink:href="#SVGID_3_"  overflow="visible"/>
			</clipPath>
		</g>
	</g>
	<g>
		<g>
			<defs>
				<path id="SVGID_5_" d="M121.122,41.333h9.158c2.858,0,4.167,2.042,4.167,6.131c0,4.171-1.063,6.543-4.167,6.543h-9.158V41.333z
					 M105.264,27.843v59.85h15.858V65.779c0.407,0.244,7.521,1.39,10.794,1.634c7.52,0.571,18.476-0.979,18.476-20.193
					c0-17.332-10.137-19.377-18.476-19.377H105.264z"/>
			</defs>
			<use xlink:href="#SVGID_5_"  overflow="visible" fill="#306E86"/>
			<clipPath id="SVGID_6_">
				<use xlink:href="#SVGID_5_"  overflow="visible"/>
			</clipPath>
		</g>
		<g>
			<defs>
				<path id="SVGID_7_" d="M154.743,41.743v32.784c0,12.507,10.733,13.572,16.026,13.409c0,0,17.493-0.244,25.916-1.393V73.301
					h-21.011c-2.372,0-5.071,0.08-5.071-4.251v-3.599l21.994-0.735V51.554l-21.994-0.901v-3.596c0-2.209,0-4.578,4.25-4.578h21.832
					V29.152c-9.569-1.31-26.736-1.31-26.736-1.31C164.17,27.843,154.743,29.415,154.743,41.743"/>
			</defs>
			<use xlink:href="#SVGID_7_"  overflow="visible" fill="#306E86"/>
			<clipPath id="SVGID_8_">
				<use xlink:href="#SVGID_7_"  overflow="visible"/>
			</clipPath>
		</g>
		<g>
			<defs>
				<polygon id="SVGID_9_" points="199.834,27.843 199.834,42.07 214.875,42.07 214.875,87.692 230.736,87.692 230.736,42.07 
					246.271,42.07 246.271,27.843 				"/>
			</defs>
			<use xlink:href="#SVGID_9_"  overflow="visible" fill="#306E86"/>
			<clipPath id="SVGID_10_">
				<use xlink:href="#SVGID_9_"  overflow="visible"/>
			</clipPath>
		</g>
		<g>
			<defs>
				<path id="SVGID_11_" d="M266.525,41.333h8.748c3.595,0,4.414,2.125,4.414,5.724c0,4.25-0.244,6.376-4.414,6.376h-8.748V41.333z
					 M250.582,27.843v59.85h15.862V65.368l4.905,1.146l7.683,21.178h18.069l-10.301-22.651c4.17-1.634,8.83-3.76,8.83-17.984
					c0-14.878-7.686-19.214-18.315-19.214H250.582z"/>
			</defs>
			<use xlink:href="#SVGID_11_"  overflow="visible" fill="#317087"/>
			<clipPath id="SVGID_12_">
				<use xlink:href="#SVGID_11_"  overflow="visible"/>
			</clipPath>
		</g>
		<g>
			<defs>
				<path id="SVGID_13_" d="M315.594,58.174c0-14.633,1.721-16.517,8.914-16.517c7.441,0,8.91,2.619,8.91,16.517
					c0,12.674-1.879,15.618-8.91,15.618C316.494,73.792,315.594,70.685,315.594,58.174 M299.736,58.174
					c0,27.224,10.053,29.843,24.771,29.843c14.715,0,24.77-3.435,24.77-29.843c0-28.042-10.625-30.739-24.77-30.739
					C310.774,27.435,299.736,30.132,299.736,58.174"/>
			</defs>
			<use xlink:href="#SVGID_13_"  overflow="visible" fill="#306E86"/>
			<clipPath id="SVGID_14_">
				<use xlink:href="#SVGID_13_"  overflow="visible"/>
			</clipPath>
		</g>
		<g>
			<defs>
				<path id="SVGID_15_" d="M354.578,27.843v47.095c0,9.239,6.135,12.755,13.572,12.755h24.201v-14.23H375.51
					c-2.373,0-5.066,0.083-5.066-4.251V27.843H354.578z"/>
			</defs>
			<use xlink:href="#SVGID_15_"  overflow="visible" fill="#306E86"/>
			<clipPath id="SVGID_16_">
				<use xlink:href="#SVGID_15_"  overflow="visible"/>
			</clipPath>
		</g>
		<g>
			<defs>
				<path id="SVGID_17_" d="M396.463,41.743v32.784c0,12.507,10.736,13.572,16.023,13.409c0,0,17.5-0.244,25.92-1.393V73.301
					h-21.012c-2.371,0-5.066,0.08-5.066-4.251v-3.599l21.99-0.735V51.554l-21.99-0.901v-3.596c0-2.209,0-4.578,4.246-4.578h21.832
					V29.152c-9.566-1.31-26.732-1.31-26.732-1.31C405.887,27.843,396.463,29.415,396.463,41.743"/>
			</defs>
			<use xlink:href="#SVGID_17_"  overflow="visible" fill="#317087"/>
			<clipPath id="SVGID_18_">
				<use xlink:href="#SVGID_17_"  overflow="visible"/>
			</clipPath>
		</g>
		<g>
			<defs>
				<path id="SVGID_19_" d="M474.371,27.843v33.683c0,7.361-0.162,12.347-7.439,12.347c-7.768,0-7.936-4.661-7.936-12.347V27.843
					h-15.854v33.683c0,27.227,12.668,26.574,23.789,26.574c9.891,0,23.379-0.163,23.379-26.574V27.843H474.371z"/>
			</defs>
			<use xlink:href="#SVGID_19_"  overflow="visible" fill="#306E86"/>
			<clipPath id="SVGID_20_">
				<use xlink:href="#SVGID_19_"  overflow="visible"/>
			</clipPath>
		</g>
		<g>
			<defs>
				<polygon id="SVGID_21_" points="533.211,27.843 527.82,61.445 522.752,27.843 500.678,27.843 494.299,87.692 509.914,87.692 
					513.676,55.066 518.906,87.692 537.059,87.692 542.045,55.066 546.133,87.692 561.744,87.692 555.291,27.843 				"/>
			</defs>
			<use xlink:href="#SVGID_21_"  overflow="visible" fill="#306E86"/>
			<clipPath id="SVGID_22_">
				<use xlink:href="#SVGID_21_"  overflow="visible"/>
			</clipPath>
		</g>
	</g>
	<polygon fill="#678B90" points="213.625,115.387 204.821,115.387 202.863,113.406 202.863,98.482 207.398,98.482 207.398,110.85 
		213.625,110.85 	"/>
	<path fill="#678B90" d="M232.488,113.406l-1.96,1.98h-12.862l-1.959-1.98v-12.947l1.959-1.977h12.862l1.96,1.977V113.406z
		 M227.975,103.016h-7.732v7.838h7.732V103.016z"/>
	<polygon fill="#678B90" points="249.908,115.387 236.527,115.387 234.57,113.406 234.57,100.459 236.527,98.482 249.908,98.482 
		249.908,103.016 239.105,103.016 239.105,110.85 245.395,110.85 245.395,109.203 240.773,109.203 240.773,104.664 249.908,104.664 
			"/>
	<rect x="251.97" y="98.479" fill="#678B90" width="4.539" height="16.907"/>
	<polygon fill="#678B90" points="275.246,113.406 273.287,115.387 258.547,115.387 258.547,110.85 270.729,110.85 270.729,109.201 
		260.506,109.201 258.547,107.223 258.547,100.459 260.506,98.482 275.246,98.482 275.246,103.016 263.082,103.016 263.082,104.664 
		273.287,104.664 275.246,106.625 	"/>
	<polygon fill="#678B90" points="294.149,102.995 288.07,102.995 288.07,115.363 283.553,115.363 283.553,102.995 277.307,103.016 
		277.307,98.482 294.149,98.459 	"/>
	<rect x="296.209" y="98.479" fill="#678B90" width="4.539" height="16.907"/>
	<polygon fill="#678B90" points="319.549,115.387 304.746,115.387 302.787,113.406 302.787,100.459 304.746,98.482 319.549,98.459 
		319.549,103.016 307.324,103.016 307.324,110.85 319.549,110.85 	"/>
	<polygon fill="#678B90" points="338.332,113.406 336.373,115.387 321.633,115.387 321.633,110.85 333.814,110.85 333.814,109.201 
		323.59,109.201 321.633,107.223 321.633,100.459 323.59,98.482 338.332,98.482 338.332,103.016 326.168,103.016 326.168,104.664 
		336.373,104.664 338.332,106.625 	"/>
	<polygon fill="#678B90" points="366.369,113.406 364.41,115.387 349.668,115.387 349.668,110.85 361.854,110.85 361.854,109.201 
		351.627,109.201 349.668,107.223 349.668,100.459 351.627,98.482 366.369,98.482 366.369,103.016 354.205,103.016 354.205,104.664 
		364.41,104.664 366.369,106.625 	"/>
	<polygon fill="#678B90" points="385.189,115.387 370.389,115.387 368.43,113.406 368.43,100.459 370.389,98.482 385.189,98.482 
		385.189,103.016 372.963,103.016 372.963,104.664 385.211,104.664 385.211,109.203 372.963,109.203 372.963,110.85 385.189,110.85 
			"/>
	<path fill="#678B90" d="M404.074,115.387h-4.514v-6.184h-7.729v6.184h-4.539V98.482h14.824l1.957,1.977v5.215l-1.234,1.262
		l1.234,1.256V115.387z M399.561,103.016h-7.729v1.648h7.729V103.016z"/>
	<polygon fill="#678B90" points="419.889,113.406 417.93,115.387 406.158,115.387 406.158,98.482 410.693,98.482 410.693,110.85 
		415.371,110.85 415.371,98.482 419.889,98.482 	"/>
	<rect x="421.949" y="98.479" fill="#678B90" width="4.537" height="16.907"/>
	<polygon fill="#678B90" points="445.287,115.387 430.482,115.387 428.523,113.406 428.523,100.459 430.482,98.482 445.287,98.459 
		445.287,103.016 433.059,103.016 433.059,110.85 445.287,110.85 	"/>
	<polygon fill="#678B90" points="464.131,115.387 449.326,115.387 447.367,113.406 447.367,100.459 449.326,98.482 464.131,98.482 
		464.131,103.016 451.904,103.016 451.904,104.664 464.148,104.664 464.148,109.203 451.904,109.203 451.904,110.85 464.131,110.85 
			"/>
</g>
</svg>
