<?xml version="1.0" encoding="utf-8"?>
<!-- Generator: Adobe Illustrator 16.0.0, SVG Export Plug-In . SVG Version: 6.00 Build 0)  -->
<!DOCTYPE svg PUBLIC "-//W3C//DTD SVG 1.1//EN" "http://www.w3.org/Graphics/SVG/1.1/DTD/svg11.dtd">
<svg version="1.1" id="Layer_1" xmlns="http://www.w3.org/2000/svg" xmlns:xlink="http://www.w3.org/1999/xlink" x="0px" y="0px"
	 width="398.611px" height="118.892px" viewBox="0 0 398.611 118.892" enable-background="new 0 0 398.611 118.892"
	 xml:space="preserve">
<symbol  id="New_Symbol_2" viewBox="-89 -101.477 178 203.477">
	<linearGradient id="SVGID_1_" gradientUnits="userSpaceOnUse" x1="-88.8574" y1="0.2617" x2="88.8575" y2="0.2617">
		<stop  offset="0.2084" style="stop-color:#F7931E"/>
		<stop  offset="1" style="stop-color:#006837"/>
	</linearGradient>
	<path fill="url(#SVGID_1_)" d="M-42.438-64.013c-0.969-2.063-3.416-3.092-5.565-2.312c-1.131,0.41-2.167,1.252-3.158,1.921
		c-0.92,0.621-1.829,1.26-2.725,1.916c-1.858,1.36-3.663,2.795-5.407,4.299c-6.858,5.915-12.769,12.916-17.431,20.682
		C-87.234-20.004-91.104,1.117-87.596,21.223c1.91,10.946,5.959,21.505,11.872,30.914c1.484,2.361,3.084,4.65,4.793,6.854
		c1.493,1.925,3.138,3.78,5.838,3.08c2.259-0.585,3.709-2.897,3.261-5.185c-0.259-1.32-1.172-2.251-1.97-3.277
		c-0.827-1.062-1.625-2.147-2.394-3.253c-12.443-17.885-16.7-40.735-11.602-61.909c4.649-19.305,16.915-36.211,33.696-46.792
		C-42.224-59.529-41.494-62.001-42.438-64.013z M-14.684,62.31c-2.883,0-7.146,0.873-9.367-1.521
		c-1.222-1.317-1.379-3.553-0.834-5.197c0.523-1.579,1.907-2.438,3.466-2.792c1.694-0.384,3.465-0.305,5.188-0.254
		c1.706,0.051,3.394,0.031,5.076,0.371c2.923,0.588,5.629,2.033,7.639,4.25c3.736,4.12,4.736,10.301,3.023,15.522
		c-1.933,5.891-7.186,9.557-13.317,9.832c-5.054,0.228-10.158,0.02-15.216,0.02c-2.004,0-4.251,0.265-5.961-0.999
		c-2.271-1.678-2.58-4.971-0.744-7.084C-34.202,72.693-31.984,73-29.865,73c3.015,0,6.029,0,9.043,0c2.042,0,4.084,0,6.125,0
		c3.03,0,5.393-2.52,5.257-5.593C-9.566,64.535-11.856,62.31-14.684,62.31z M24.581,79.129c10.108-3.317,19.483-8.805,27.393-15.912
		c3.964-3.562,7.563-7.531,10.704-11.837c1.564-2.145,4.476-2.877,6.65-1.089c1.798,1.479,2.139,4.18,0.778,6.064
		c-6.227,8.61-14.085,16.023-23.001,21.799c-4.45,2.883-9.166,5.358-14.071,7.371c-1.177,0.482-2.364,0.939-3.562,1.367
		c-1.189,0.426-2.446,1.009-3.734,0.94c-2.327-0.123-4.213-2.096-4.231-4.427C21.491,81.485,22.754,79.726,24.581,79.129z
		 M88.836,21.03C88.846,20.944,88.809,21.344,88.836,21.03L88.836,21.03z M63.707,4.373c1.029-2.1,3.814-2.701,5.628-1.239
		c0.406,0.327,0.812,0.654,1.217,0.981c4.54,3.661,9.079,7.322,13.619,10.982c1.819,1.467,4.975,3.209,4.666,5.933
		c-0.14,1.608-1.048,3.304-1.588,4.796c-1.061,2.931-2.122,5.861-3.184,8.793c-0.929,2.568-1.859,5.137-2.788,7.705
		c-0.188,0.52-0.377,1.039-0.564,1.559c-0.759,2.097-3.251,3.088-5.229,2.021c-1.159-0.625-1.91-1.863-1.934-3.18
		c-0.017-0.896,0.368-1.727,0.667-2.555c-9.754,3.139-20.621,4.984-30.752,2.521c-7.196-1.75-13.647-5.895-18.249-11.693
		C16.399,19.888,14.91,3.521,23.222-8.297c5.596-7.956,14.593-12.551,23.456-15.934c2.963-1.131,6.558-2.08,8.933-4.301
		c1.577-1.475,2.271-4.156,0.565-5.812c-2.037-1.976-5.624-2.05-8.263-1.968c-4.216,0.132-8.43,1.091-12.38,2.544
		c-2.113,0.777-4.169,1.719-6.117,2.85c-1.688,0.982-3.307,2.64-5.365,2.674c-3.385,0.059-6.118-3.932-4.653-7.038
		c0.987-2.094,3.707-3.368,5.616-4.46c2.398-1.369,4.923-2.516,7.525-3.439c4.877-1.733,10.034-2.704,15.207-2.883
		c4.654-0.16,9.184,0.348,13.115,3.056c3.658,2.52,6.138,6.548,6.182,11.05c0.036,3.677-1.291,7.318-3.917,9.918
		c-2.534,2.51-5.887,4.027-9.133,5.381c-7.967,3.324-16.845,6.326-22.252,13.516c-5.351,7.113-5.228,16.972-1.099,24.63
		c2.106,3.905,5.303,7.327,9.183,9.506c4.046,2.272,8.705,3.144,13.309,3.142c4.896-0.002,9.764-0.923,14.463-2.247
		c2.127-0.599,4.216-1.307,6.3-2.038l4.659-1.662c0.441-1.218,0.881-2.436,1.322-3.653c0.088-0.243,1.101-2.543,0.932-2.679
		c-1.013-0.817-2.026-1.635-3.039-2.451c-0.369-0.297-0.737-0.595-1.106-0.893c-0.285-0.229-2.814,1.035-3.239,1.201
		c-7.529,2.949-16.354,5.428-24.449,3.444c-4.682-1.147-8.836-4.152-10.423-8.835c-1.365-4.028-0.657-8.592,1.656-12.132
		c2.753-4.214,7.496-6.007,11.95-7.874c6.157-2.58,12.543-5.153,17.671-9.544c2.544-2.179,4.701-4.828,6.012-7.929
		c1.571-3.716,1.755-7.795,1.261-11.76c-1.008-8.094-5.724-14.611-13.271-17.85C59.107-54.795,54.067-55,48.99-55
		c-10.941,0-21.881,0-32.822,0c-5.635,0-11.271,0-16.906,0c-1.604,0-4.812,0-4.812,0H-7c0,0,0,15.999,0,24.158
		C-7-18.363-7-5.887-7,6.592C-7,10.061-7,13.531-7,17c0,1.495-0.147,2.892-1.212,4.092C-11.136,24.391-17,22.478-17,17.933
		c0-7.271,0-14.543,0-21.813c0-12.809,0-25.617,0-38.426c0-4.678,0-9.354,0-14.032c0-2.267,0-5.021,1.201-6.662
		C-14.084-65.344-9.501-65-6.897-65c5.294,0,10.587,0,15.881,0c12.046,0,24.092,0,36.138,0c2.774,0,5.566-0.309,8.34-0.18
		c8.254,0.383,16.497,2.985,22.785,8.466c12.088,10.537,14.97,30.789,5.095,43.722c-3.998,5.236-9.556,9.016-15.369,11.986
		c-4.571,2.336-9.404,4.004-14.074,6.11c-1.338,0.604-2.7,1.245-3.574,2.478c-0.889,1.252-1.091,2.903-0.188,4.207
		c1.294,1.869,3.93,2.328,6.035,2.413c4.652,0.187,9.359-1.213,13.684-2.776C65.739,9.712,62.104,7.641,63.707,4.373z
		 M30.245-77.537C28.194-74.426,23.116-75,19.875-75c-5.772,0-11.544,0-17.316,0C-7.141-75-27-75-27-75v3.087c0,0,0,7.471,0,11.206
		c0,11.949,0,23.899,0,35.85c0,12.502,0,25.004,0,37.507c0,6.552,0,13.104,0,19.655c0,0.58,2.334,0.695,2.772,0.695
		c3.081,0,6.162,0,9.243,0c5.623,0,11.115,0.235,16.364,2.431c10.653,4.456,17.499,14.494,19.229,25.723
		c1.684,10.927-1.274,22.765-9.049,30.831c-4.103,4.258-9.394,7.381-15.129,8.77c-4.204,1.02-8.448,1.246-12.737,1.246
		c-11.197,0-22.394,0-33.591,0c-1.71,0-3.536-0.155-5.012-1.238c-1.519-1.115-2.09-3.01-2.09-4.771c0-3.053,0-6.104,0-9.156
		c0-12.072,0-24.144,0-36.215c0-10.635,0-21.27,0-31.904c0-1.327,0-2.654,0-3.981c-2,3.802-4.541,7.604-6.892,11.405
		c-2.636,4.267-9.307,1.663-8.496-3.25c0.249-1.511,1.447-2.938,2.243-4.21c3.194-5.105,6.409-10.211,9.604-15.316
		c1.255-2.005,2.52-4.011,3.774-6.016c0.963-1.539,1.632-3.034,3.542-3.56C-50.023-7.094-47-4.93-47-1.545c0,0.472,0,0.943,0,1.414
		c0,3.247,0,6.494,0,9.74c0,11.896,0,23.792,0,35.688c0,11.83,0,23.661,0,35.491c0,3.165,0,6.33,0,9.495
		c0,0.07,0.309,1.717,0.322,1.717c1.219,0,2.439,0,3.659,0c10.107,0,20.214,0,30.321,0c6.067,0,12.076-2.135,16.539-6.35
		c4.056-3.831,6.48-9.251,7.223-14.741C12.596,59.582,6.892,47.78-4.378,44.088C-9.264,42.486-14.443,43-19.508,43
		c-3.116,0-6.233,0-9.35,0c-2.216,0-4.593,0.071-6.383-1.541c-1.925-1.734-1.588-4.323-1.586-6.636
		c0.005-3.404,0.009-6.866,0.013-10.271c0.014-11.385,0.028-22.799,0.042-34.184c0.017-12.989,0.032-25.993,0.048-38.983
		c0.011-9.199,0.023-18.407,0.034-27.606c0.002-1.492,0.003-2.758,0.006-4.251C-36.68-83.445-34.156-85-31.386-85
		c1.518,0,3.036,0,4.554,0c11.439,0,22.878,0,34.317,0c0.812,0,1.624,0,2.435,0C6.21-88,2.5-90.158-1.211-92.623
		c-1.806-1.199-2.583-3.663-1.836-5.702c0.889-2.425,3.659-3.772,6.084-2.87c1.368,0.51,2.646,1.574,3.849,2.367
		c5.102,3.359,10.204,6.707,15.306,10.068c1.753,1.155,3.506,2.303,5.259,3.457c0.483,0.318,0.982,0.613,1.451,0.952
		c1.896,1.25,2.632,3.897,1.733,5.978C30.527-78.121,30.396-77.766,30.245-77.537z"/>
	<polygon display="none" fill="none" points="-89,102 89,102 89,-101 -89,-101 	"/>
</symbol>
<g>
	<g>
		<g>
			<path fill="#006837" d="M125.857,40.759v10.01h-1.791v-24.85h6.41c2.914,0,5.111,0.64,6.592,1.915
				c1.483,1.276,2.224,3.097,2.224,5.462c0,1.088-0.202,2.09-0.608,3.003c-0.402,0.913-0.984,1.7-1.745,2.362
				c-0.761,0.661-1.686,1.175-2.774,1.544c-1.09,0.369-2.318,0.554-3.688,0.554H125.857z M125.857,39.319h4.619
				c1.099,0,2.083-0.152,2.95-0.457c0.865-0.304,1.601-0.726,2.202-1.265c0.604-0.538,1.065-1.173,1.388-1.905
				c0.322-0.731,0.483-1.53,0.483-2.396c0-1.909-0.588-3.378-1.764-4.409c-1.177-1.03-2.93-1.544-5.26-1.544h-4.619V39.319z"/>
			<path fill="#006837" d="M143.541,50.769V33.296h0.879c0.197,0,0.34,0.04,0.428,0.122s0.138,0.224,0.15,0.422l0.141,3.688
				c0.561-1.416,1.312-2.526,2.247-3.327c0.938-0.802,2.091-1.203,3.46-1.203c0.527,0,1.013,0.056,1.457,0.166
				c0.446,0.112,0.867,0.273,1.265,0.483l-0.229,1.158c-0.034,0.188-0.151,0.282-0.351,0.282c-0.07,0-0.169-0.023-0.299-0.07
				s-0.291-0.1-0.483-0.158s-0.431-0.111-0.712-0.158c-0.28-0.047-0.602-0.07-0.966-0.07c-1.322,0-2.407,0.41-3.257,1.229
				s-1.535,2.002-2.062,3.547v11.362H143.541z"/>
			<path fill="#006837" d="M164.139,33.015c1.255,0,2.374,0.214,3.363,0.641c0.99,0.428,1.824,1.033,2.504,1.817
				c0.679,0.784,1.195,1.729,1.554,2.836c0.356,1.106,0.535,2.345,0.535,3.715s-0.179,2.605-0.535,3.705
				c-0.358,1.102-0.875,2.043-1.554,2.827c-0.68,0.784-1.514,1.387-2.504,1.81c-0.989,0.422-2.108,0.632-3.363,0.632
				c-1.252,0-2.371-0.21-3.361-0.632c-0.989-0.423-1.826-1.025-2.512-1.81s-1.205-1.726-1.562-2.827
				c-0.356-1.1-0.535-2.335-0.535-3.705s0.179-2.608,0.535-3.715c0.357-1.106,0.877-2.052,1.562-2.836s1.522-1.39,2.512-1.817
				C161.768,33.229,162.887,33.015,164.139,33.015z M164.139,49.681c1.045,0,1.953-0.18,2.732-0.536
				c0.779-0.357,1.429-0.869,1.948-1.537c0.522-0.667,0.911-1.473,1.169-2.414c0.258-0.942,0.387-1.999,0.387-3.17
				c0-1.158-0.129-2.213-0.387-3.161s-0.646-1.759-1.169-2.433c-0.52-0.673-1.169-1.19-1.948-1.553
				c-0.779-0.364-1.688-0.546-2.732-0.546c-1.041,0-1.95,0.182-2.729,0.546c-0.779,0.362-1.429,0.88-1.948,1.553
				c-0.521,0.674-0.914,1.484-1.177,2.433c-0.265,0.948-0.395,2.003-0.395,3.161c0,1.171,0.13,2.228,0.395,3.17
				c0.263,0.941,0.655,1.747,1.177,2.414c0.52,0.668,1.169,1.18,1.948,1.537C162.188,49.501,163.098,49.681,164.139,49.681z"/>
			<path fill="#006837" d="M187.988,35.631c-0.06,0.059-0.114,0.108-0.169,0.149c-0.052,0.042-0.124,0.062-0.218,0.062
				c-0.117,0-0.278-0.079-0.483-0.236c-0.205-0.159-0.478-0.331-0.817-0.519c-0.338-0.188-0.764-0.359-1.273-0.519
				c-0.509-0.158-1.127-0.237-1.852-0.237c-1.008,0-1.898,0.18-2.678,0.536c-0.779,0.357-1.435,0.869-1.967,1.536
				c-0.532,0.668-0.94,1.476-1.221,2.424c-0.281,0.948-0.421,2.015-0.421,3.196c0,1.229,0.144,2.318,0.429,3.267
				c0.288,0.947,0.693,1.748,1.221,2.396c0.527,0.649,1.166,1.145,1.914,1.483c0.748,0.341,1.582,0.511,2.494,0.511
				c0.844,0,1.548-0.101,2.116-0.299c0.566-0.199,1.036-0.416,1.405-0.65s0.66-0.449,0.878-0.649
				c0.216-0.199,0.39-0.299,0.517-0.299c0.154,0,0.271,0.059,0.352,0.175l0.457,0.562c-0.271,0.353-0.608,0.68-1.019,0.983
				c-0.41,0.306-0.872,0.569-1.387,0.791s-1.075,0.395-1.679,0.519c-0.602,0.121-1.23,0.184-1.888,0.184
				c-1.112,0-2.128-0.202-3.047-0.606c-0.917-0.403-1.709-0.988-2.368-1.756c-0.663-0.766-1.178-1.706-1.546-2.818
				c-0.369-1.112-0.554-2.376-0.554-3.793c0-1.335,0.174-2.552,0.527-3.653c0.351-1.1,0.862-2.048,1.535-2.844
				c0.673-0.797,1.499-1.415,2.476-1.854c0.979-0.439,2.099-0.658,3.363-0.658c1.136,0,2.146,0.182,3.028,0.544
				c0.887,0.363,1.655,0.854,2.312,1.475L187.988,35.631z"/>
			<path fill="#006837" d="M193.695,33.296v11.169c0,1.639,0.377,2.924,1.127,3.854c0.75,0.93,1.896,1.396,3.437,1.396
				c1.138,0,2.202-0.29,3.189-0.87c0.987-0.579,1.873-1.385,2.659-2.415V33.296h1.668v17.473h-0.92c-0.321,0-0.49-0.151-0.5-0.457
				l-0.159-2.599c-0.811,1.008-1.745,1.815-2.806,2.424c-1.062,0.608-2.244,0.913-3.545,0.913c-0.972,0-1.82-0.152-2.548-0.456
				c-0.728-0.306-1.33-0.744-1.813-1.317c-0.48-0.574-0.844-1.265-1.088-2.072c-0.247-0.808-0.369-1.721-0.369-2.739V33.296H193.695
				z"/>
			<path fill="#006837" d="M211.467,50.769V33.296h0.878c0.197,0,0.34,0.04,0.429,0.122c0.088,0.082,0.137,0.224,0.15,0.422
				l0.141,3.688c0.561-1.416,1.312-2.526,2.246-3.327c0.938-0.802,2.092-1.203,3.46-1.203c0.527,0,1.013,0.056,1.457,0.166
				c0.447,0.112,0.868,0.273,1.265,0.483l-0.229,1.158c-0.033,0.188-0.15,0.282-0.351,0.282c-0.069,0-0.169-0.023-0.298-0.07
				c-0.131-0.047-0.291-0.1-0.483-0.158s-0.432-0.111-0.712-0.158s-0.603-0.07-0.967-0.07c-1.321,0-2.407,0.41-3.257,1.229
				c-0.849,0.819-1.535,2.002-2.062,3.547v11.362H211.467z"/>
			<path fill="#006837" d="M231.994,33.015c0.984,0,1.894,0.17,2.732,0.509c0.836,0.34,1.563,0.835,2.177,1.484
				c0.615,0.649,1.096,1.448,1.441,2.397c0.343,0.948,0.517,2.036,0.517,3.266c0,0.258-0.039,0.433-0.114,0.526
				c-0.075,0.095-0.194,0.142-0.358,0.142h-12.61v0.334c0,1.311,0.153,2.464,0.457,3.458c0.304,0.996,0.737,1.83,1.299,2.503
				c0.562,0.674,1.241,1.181,2.036,1.52c0.798,0.34,1.686,0.509,2.67,0.509c0.879,0,1.64-0.096,2.283-0.289
				c0.645-0.194,1.185-0.409,1.624-0.649c0.438-0.24,0.789-0.457,1.047-0.651c0.257-0.191,0.444-0.289,0.561-0.289
				c0.153,0,0.271,0.059,0.351,0.175l0.457,0.562c-0.28,0.353-0.651,0.68-1.114,0.983c-0.462,0.306-0.979,0.565-1.545,0.782
				c-0.569,0.217-1.177,0.39-1.826,0.518c-0.652,0.129-1.304,0.193-1.958,0.193c-1.195,0-2.283-0.207-3.268-0.623
				c-0.982-0.416-1.826-1.022-2.53-1.818c-0.706-0.796-1.249-1.77-1.634-2.923s-0.576-2.475-0.576-3.96
				c0-1.254,0.176-2.409,0.534-3.469c0.356-1.061,0.873-1.973,1.546-2.74c0.673-0.767,1.499-1.366,2.476-1.801
				C229.646,33.231,230.755,33.015,231.994,33.015z M232.02,34.261c-0.898,0-1.706,0.141-2.418,0.422
				c-0.714,0.281-1.33,0.685-1.852,1.212c-0.52,0.526-0.94,1.158-1.263,1.896c-0.319,0.737-0.532,1.563-0.639,2.477h11.504
				c0-0.937-0.13-1.776-0.387-2.521c-0.258-0.743-0.621-1.372-1.089-1.888c-0.467-0.516-1.028-0.91-1.683-1.186
				C233.539,34.398,232.814,34.261,232.02,34.261z"/>
			<path fill="#006837" d="M243.357,50.769V33.296h0.912c0.304,0,0.48,0.146,0.527,0.439l0.158,2.528
				c0.338-0.48,0.701-0.92,1.088-1.317c0.388-0.398,0.801-0.74,1.239-1.027c0.439-0.287,0.907-0.51,1.405-0.667
				c0.496-0.158,1.021-0.237,1.571-0.237c1.275,0,2.294,0.371,3.055,1.115c0.761,0.743,1.275,1.776,1.546,3.099
				c0.21-0.725,0.506-1.352,0.886-1.878c0.379-0.527,0.815-0.964,1.307-1.31c0.49-0.345,1.025-0.603,1.603-0.772
				c0.579-0.169,1.174-0.254,1.781-0.254c0.865,0,1.642,0.144,2.333,0.43c0.688,0.287,1.275,0.711,1.761,1.273
				c0.486,0.562,0.854,1.254,1.114,2.071c0.257,0.821,0.385,1.758,0.385,2.811v11.169h-1.668V39.6c0-1.709-0.368-3.012-1.106-3.907
				c-0.737-0.896-1.792-1.343-3.161-1.343c-0.61,0-1.192,0.111-1.748,0.333c-0.556,0.223-1.047,0.554-1.476,0.992
				c-0.426,0.439-0.766,0.986-1.018,1.642c-0.252,0.656-0.377,1.417-0.377,2.283v11.169h-1.67V39.6c0-1.697-0.338-2.997-1.019-3.898
				c-0.678-0.901-1.667-1.352-2.966-1.352c-0.948,0-1.829,0.284-2.637,0.852s-1.527,1.354-2.158,2.361v13.206H243.357z"/>
			<path fill="#006837" d="M277.88,33.015c0.984,0,1.894,0.17,2.732,0.509c0.837,0.34,1.563,0.835,2.177,1.484
				c0.616,0.649,1.097,1.448,1.441,2.397c0.344,0.948,0.518,2.036,0.518,3.266c0,0.258-0.039,0.433-0.114,0.526
				c-0.075,0.095-0.195,0.142-0.358,0.142h-12.611v0.334c0,1.311,0.153,2.464,0.457,3.458c0.305,0.996,0.738,1.83,1.299,2.503
				c0.562,0.674,1.242,1.181,2.037,1.52c0.797,0.34,1.686,0.509,2.67,0.509c0.878,0,1.639-0.096,2.283-0.289
				c0.645-0.194,1.185-0.409,1.623-0.649c0.439-0.24,0.79-0.457,1.047-0.651c0.257-0.191,0.444-0.289,0.562-0.289
				c0.153,0,0.27,0.059,0.351,0.175l0.457,0.562c-0.281,0.353-0.652,0.68-1.114,0.983c-0.463,0.306-0.979,0.565-1.546,0.782
				c-0.568,0.217-1.177,0.39-1.826,0.518c-0.651,0.129-1.304,0.193-1.958,0.193c-1.195,0-2.283-0.207-3.268-0.623
				c-0.981-0.416-1.826-1.022-2.53-1.818c-0.706-0.796-1.249-1.77-1.634-2.923c-0.384-1.153-0.576-2.475-0.576-3.96
				c0-1.254,0.177-2.409,0.535-3.469c0.355-1.061,0.872-1.973,1.545-2.74c0.673-0.767,1.499-1.366,2.476-1.801
				C275.532,33.231,276.641,33.015,277.88,33.015z M277.906,34.261c-0.898,0-1.707,0.141-2.418,0.422
				c-0.715,0.281-1.33,0.685-1.853,1.212c-0.52,0.526-0.94,1.158-1.263,1.896c-0.319,0.737-0.532,1.563-0.639,2.477h11.504
				c0-0.937-0.13-1.776-0.387-2.521c-0.257-0.743-0.621-1.372-1.088-1.888c-0.468-0.516-1.029-0.91-1.684-1.186
				S278.701,34.261,277.906,34.261z"/>
			<path fill="#006837" d="M289.244,50.769V33.296h0.911c0.304,0,0.48,0.146,0.527,0.439l0.159,2.634
				c0.794-1.007,1.722-1.818,2.781-2.433s2.239-0.922,3.54-0.922c0.959,0,1.806,0.151,2.538,0.457
				c0.729,0.304,1.338,0.742,1.818,1.316c0.478,0.574,0.842,1.264,1.088,2.073c0.244,0.808,0.369,1.721,0.369,2.738v11.169h-1.67
				V39.6c0-1.639-0.374-2.923-1.122-3.854c-0.751-0.931-1.899-1.396-3.442-1.396c-1.147,0-2.213,0.296-3.197,0.887
				s-1.862,1.401-2.634,2.433v13.1H289.244z"/>
			<path fill="#006837" d="M313.003,51.05c-1.183,0-2.102-0.328-2.756-0.983c-0.657-0.656-0.985-1.668-0.985-3.038V35.087h-2.512
				c-0.127,0-0.233-0.035-0.313-0.105c-0.083-0.07-0.125-0.17-0.125-0.299v-0.65l2.987-0.21l0.415-6.252
				c0.014-0.105,0.055-0.199,0.13-0.281c0.075-0.081,0.177-0.123,0.307-0.123h0.779v6.674h5.499v1.247h-5.499V46.94
				c0,0.48,0.062,0.894,0.185,1.237c0.125,0.346,0.294,0.63,0.512,0.853c0.216,0.223,0.47,0.387,0.764,0.492
				c0.291,0.104,0.607,0.158,0.948,0.158c0.421,0,0.784-0.062,1.088-0.185c0.304-0.123,0.569-0.259,0.79-0.404
				c0.223-0.146,0.405-0.281,0.545-0.403c0.141-0.123,0.252-0.185,0.333-0.185c0.094,0,0.187,0.059,0.28,0.175l0.457,0.738
				c-0.444,0.491-1.011,0.887-1.693,1.186C314.452,50.9,313.74,51.05,313.003,51.05z"/>
		</g>
		<g>
			<g>
				<path fill="#EAA62F" d="M134.586,61.093c1.028,0,1.951,0.156,2.766,0.474c0.813,0.315,1.51,0.737,2.089,1.264
					c0.579,0.527,1.036,1.13,1.372,1.809c0.332,0.68,0.529,1.382,0.586,2.108l-2.756,0.579c-0.036,0.012-0.074,0.019-0.113,0.019
					c-0.042,0-0.081,0-0.115,0c-0.199,0-0.379-0.057-0.535-0.168c-0.158-0.11-0.285-0.283-0.379-0.519
					c-0.104-0.304-0.238-0.593-0.402-0.868c-0.166-0.275-0.363-0.516-0.598-0.721c-0.233-0.204-0.509-0.369-0.826-0.491
					c-0.316-0.123-0.678-0.185-1.088-0.185c-0.491,0-0.933,0.084-1.316,0.255c-0.388,0.17-0.715,0.397-0.984,0.685
					c-0.271,0.287-0.474,0.62-0.616,1.001c-0.14,0.381-0.21,0.782-0.21,1.202c0,0.353,0.039,0.691,0.113,1.02
					c0.078,0.328,0.197,0.656,0.361,0.983s0.377,0.665,0.642,1.009c0.263,0.346,0.587,0.719,0.974,1.116l6.744,7.007
					c0.387-0.738,0.695-1.516,0.932-2.336c0.234-0.819,0.385-1.65,0.455-2.493c0.023-0.271,0.111-0.485,0.265-0.65
					c0.15-0.164,0.36-0.246,0.632-0.246h2.722c-0.011,1.546-0.233,3.021-0.668,4.427c-0.434,1.403-1.054,2.698-1.862,3.88
					l5.322,5.515h-4.25c-0.223,0-0.418-0.012-0.589-0.035c-0.169-0.023-0.33-0.067-0.483-0.131c-0.15-0.065-0.296-0.149-0.439-0.256
					c-0.14-0.105-0.285-0.239-0.438-0.404l-1.756-1.808c-1.122,0.913-2.374,1.627-3.748,2.142c-1.376,0.516-2.864,0.772-4.47,0.772
					c-0.982,0-1.943-0.166-2.881-0.5c-0.936-0.334-1.773-0.816-2.51-1.449c-0.737-0.631-1.332-1.396-1.783-2.291
					c-0.45-0.896-0.676-1.905-0.676-3.029c0-0.785,0.13-1.53,0.387-2.239c0.258-0.708,0.613-1.366,1.07-1.976
					s0.998-1.159,1.626-1.65c0.626-0.492,1.312-0.913,2.062-1.265c-0.621-0.879-1.075-1.735-1.361-2.573
					c-0.288-0.836-0.431-1.67-0.431-2.503c0-0.878,0.16-1.711,0.482-2.502c0.322-0.79,0.79-1.479,1.405-2.062
					c0.616-0.586,1.366-1.051,2.257-1.396C132.453,61.265,133.461,61.093,134.586,61.093z M128.475,79.426
					c0,0.645,0.111,1.224,0.332,1.738c0.223,0.516,0.527,0.952,0.914,1.309c0.387,0.357,0.834,0.633,1.343,0.825
					c0.509,0.193,1.052,0.291,1.626,0.291c1.029,0,1.969-0.161,2.818-0.483s1.623-0.771,2.327-1.344l-6.675-6.849
					c-0.936,0.607-1.619,1.294-2.045,2.055C128.688,77.729,128.475,78.548,128.475,79.426z"/>
			</g>
			<g>
				<path fill="#006837" d="M159.469,85.239h11.782v1.527h-13.574v-24.85h1.792V85.239z"/>
				<path fill="#006837" d="M181.453,69.012c1.256,0,2.375,0.215,3.364,0.642c0.989,0.428,1.823,1.032,2.504,1.817
					c0.678,0.784,1.194,1.729,1.554,2.836c0.355,1.106,0.535,2.345,0.535,3.715s-0.18,2.604-0.535,3.705
					c-0.359,1.101-0.876,2.043-1.554,2.827c-0.681,0.784-1.515,1.387-2.504,1.809c-0.989,0.423-2.108,0.633-3.364,0.633
					c-1.252,0-2.371-0.21-3.36-0.633c-0.989-0.422-1.826-1.024-2.512-1.809s-1.205-1.727-1.563-2.827
					c-0.355-1.101-0.535-2.335-0.535-3.705s0.18-2.608,0.535-3.715c0.358-1.106,0.878-2.052,1.563-2.836
					c0.686-0.785,1.522-1.39,2.512-1.817C179.082,69.227,180.201,69.012,181.453,69.012z M181.453,85.679
					c1.045,0,1.954-0.18,2.733-0.537c0.778-0.356,1.429-0.868,1.948-1.536c0.521-0.668,0.911-1.473,1.168-2.414
					c0.258-0.943,0.388-1.999,0.388-3.17c0-1.159-0.13-2.214-0.388-3.161c-0.257-0.948-0.646-1.759-1.168-2.433
					c-0.52-0.673-1.17-1.191-1.948-1.554c-0.779-0.363-1.688-0.545-2.733-0.545c-1.041,0-1.95,0.182-2.729,0.545
					c-0.778,0.362-1.429,0.881-1.948,1.554c-0.521,0.674-0.914,1.484-1.176,2.433c-0.266,0.947-0.396,2.002-0.396,3.161
					c0,1.171,0.13,2.227,0.396,3.17c0.262,0.941,0.654,1.746,1.176,2.414c0.52,0.668,1.17,1.18,1.948,1.536
					C179.503,85.499,180.412,85.679,181.453,85.679z"/>
				<path fill="#006837" d="M199.561,68.995c0.761,0,1.465,0.094,2.114,0.28c0.651,0.188,1.233,0.451,1.748,0.79h4.478v0.58
					c0,0.292-0.163,0.451-0.49,0.475l-2.652,0.193c0.327,0.443,0.579,0.945,0.756,1.501c0.174,0.556,0.262,1.149,0.262,1.782
					c0,0.843-0.152,1.606-0.457,2.292c-0.303,0.685-0.727,1.271-1.272,1.756c-0.542,0.485-1.197,0.863-1.958,1.133
					c-0.762,0.27-1.603,0.403-2.527,0.403c-1.008,0-1.922-0.152-2.74-0.456c-0.491,0.281-0.878,0.614-1.158,1
					c-0.281,0.388-0.424,0.762-0.424,1.125c0,0.504,0.177,0.89,0.527,1.158c0.351,0.271,0.818,0.467,1.397,0.589
					c0.579,0.123,1.239,0.202,1.984,0.237c0.743,0.035,1.499,0.073,2.265,0.114c0.767,0.04,1.522,0.114,2.266,0.22
					c0.742,0.105,1.404,0.289,1.984,0.553c0.579,0.264,1.044,0.632,1.396,1.106c0.352,0.475,0.525,1.104,0.525,1.888
					c0,0.726-0.18,1.422-0.543,2.09c-0.363,0.667-0.889,1.258-1.571,1.773c-0.687,0.516-1.515,0.928-2.485,1.238
					c-0.973,0.31-2.061,0.466-3.266,0.466c-1.23,0-2.309-0.126-3.234-0.378c-0.924-0.252-1.698-0.591-2.324-1.019
					c-0.629-0.427-1.099-0.922-1.416-1.484c-0.313-0.562-0.473-1.158-0.473-1.791c0-0.924,0.305-1.721,0.912-2.388
					c0.61-0.668,1.447-1.184,2.512-1.546c-0.584-0.198-1.049-0.485-1.395-0.861c-0.346-0.374-0.52-0.895-0.52-1.562
					c0-0.246,0.047-0.504,0.141-0.773c0.093-0.269,0.233-0.536,0.423-0.799c0.187-0.263,0.413-0.513,0.675-0.746
					c0.263-0.234,0.572-0.445,0.923-0.633c-0.831-0.479-1.478-1.118-1.94-1.914s-0.693-1.727-0.693-2.792
					c0-0.843,0.148-1.606,0.447-2.291c0.298-0.686,0.719-1.274,1.264-1.766c0.546-0.492,1.203-0.872,1.977-1.142
					C197.768,69.129,198.623,68.995,199.561,68.995z M206.039,87.943c0-0.551-0.144-0.992-0.43-1.326
					c-0.288-0.334-0.67-0.594-1.15-0.782c-0.48-0.187-1.033-0.317-1.66-0.395c-0.625-0.075-1.279-0.131-1.966-0.166
					c-0.686-0.035-1.374-0.07-2.065-0.106c-0.69-0.035-1.332-0.105-1.93-0.211c-0.446,0.176-0.859,0.378-1.238,0.606
					c-0.379,0.229-0.707,0.486-0.975,0.773c-0.27,0.287-0.48,0.603-0.633,0.948c-0.151,0.345-0.227,0.722-0.227,1.132
					c0,0.516,0.13,0.992,0.395,1.432c0.263,0.438,0.649,0.819,1.158,1.142c0.51,0.322,1.133,0.576,1.871,0.764
					c0.737,0.187,1.586,0.281,2.545,0.281c0.891,0,1.72-0.1,2.486-0.299c0.766-0.199,1.434-0.48,2.002-0.843
					c0.566-0.363,1.014-0.796,1.335-1.3C205.877,89.09,206.039,88.541,206.039,87.943z M199.561,79.039c0.748,0,1.416-0.107,2-0.324
					c0.587-0.217,1.078-0.519,1.475-0.904c0.4-0.387,0.702-0.85,0.907-1.389c0.202-0.537,0.307-1.135,0.307-1.79
					c0-0.656-0.106-1.256-0.317-1.801c-0.21-0.544-0.517-1.009-0.922-1.396c-0.402-0.386-0.896-0.685-1.476-0.896
					s-1.236-0.316-1.974-0.316c-0.738,0-1.4,0.105-1.984,0.316c-0.588,0.211-1.08,0.51-1.486,0.896
					c-0.402,0.387-0.709,0.852-0.922,1.396c-0.21,0.545-0.314,1.145-0.314,1.801c0,0.655,0.104,1.253,0.314,1.79
					c0.213,0.539,0.52,1.002,0.922,1.389c0.406,0.386,0.898,0.688,1.486,0.904C198.16,78.932,198.822,79.039,199.561,79.039z"/>
				<path fill="#006837" d="M214.418,63.269c0,0.212-0.045,0.408-0.133,0.589c-0.088,0.182-0.203,0.343-0.343,0.483
					c-0.14,0.14-0.304,0.252-0.491,0.333c-0.187,0.082-0.387,0.124-0.598,0.124c-0.21,0-0.41-0.042-0.597-0.124
					c-0.188-0.081-0.351-0.193-0.491-0.333c-0.141-0.141-0.252-0.302-0.335-0.483c-0.081-0.181-0.122-0.377-0.122-0.589
					c0-0.21,0.041-0.411,0.122-0.604c0.083-0.194,0.194-0.36,0.335-0.5c0.141-0.142,0.304-0.252,0.491-0.334
					c0.187-0.082,0.387-0.123,0.597-0.123c0.211,0,0.411,0.041,0.598,0.123c0.188,0.082,0.352,0.192,0.491,0.334
					c0.14,0.14,0.255,0.306,0.343,0.5C214.373,62.857,214.418,63.059,214.418,63.269z M213.68,69.294v17.473h-1.67V69.294H213.68z"
					/>
				<path fill="#006837" d="M229.482,71.471c-0.08,0.165-0.21,0.246-0.387,0.246c-0.127,0-0.296-0.073-0.498-0.219
					c-0.206-0.147-0.477-0.311-0.809-0.493c-0.335-0.182-0.745-0.345-1.23-0.492c-0.486-0.145-1.078-0.219-1.782-0.219
					c-0.632,0-1.208,0.091-1.729,0.271c-0.52,0.182-0.967,0.423-1.336,0.727c-0.369,0.305-0.654,0.657-0.859,1.061
					c-0.205,0.402-0.307,0.825-0.307,1.27c0,0.548,0.141,1.004,0.421,1.366c0.28,0.361,0.649,0.671,1.106,0.928
					s0.975,0.479,1.553,0.666c0.58,0.187,1.175,0.374,1.785,0.562c0.607,0.187,1.202,0.395,1.781,0.623
					c0.58,0.229,1.097,0.512,1.554,0.852c0.457,0.339,0.826,0.755,1.106,1.247c0.28,0.491,0.421,1.088,0.421,1.791
					c0,0.761-0.138,1.469-0.413,2.125c-0.275,0.655-0.673,1.223-1.192,1.703c-0.522,0.48-1.163,0.86-1.925,1.142
					c-0.761,0.281-1.626,0.421-2.598,0.421c-1.23,0-2.291-0.196-3.179-0.588c-0.892-0.393-1.686-0.904-2.39-1.536l0.405-0.598
					c0.058-0.094,0.122-0.164,0.192-0.211s0.171-0.07,0.299-0.07c0.152,0,0.34,0.094,0.563,0.281
					c0.221,0.188,0.512,0.39,0.867,0.606c0.358,0.217,0.803,0.418,1.335,0.605c0.533,0.188,1.192,0.281,1.977,0.281
					c0.738,0,1.387-0.103,1.948-0.308c0.563-0.204,1.031-0.483,1.405-0.834c0.374-0.352,0.66-0.764,0.852-1.237
					c0.192-0.476,0.291-0.976,0.291-1.503c0-0.584-0.14-1.07-0.423-1.457c-0.28-0.386-0.649-0.714-1.106-0.983
					c-0.455-0.269-0.975-0.497-1.554-0.686c-0.579-0.187-1.177-0.374-1.792-0.561c-0.613-0.188-1.211-0.393-1.789-0.614
					c-0.58-0.224-1.1-0.504-1.557-0.845c-0.454-0.339-0.823-0.752-1.106-1.237c-0.28-0.486-0.421-1.091-0.421-1.817
					c0-0.62,0.135-1.218,0.405-1.792c0.268-0.572,0.652-1.076,1.151-1.511c0.496-0.433,1.101-0.777,1.814-1.035
					c0.715-0.258,1.518-0.387,2.408-0.387c1.065,0,2.011,0.154,2.837,0.464c0.823,0.308,1.581,0.78,2.272,1.416L229.482,71.471z"/>
				<path fill="#006837" d="M239.722,87.047c-1.185,0-2.101-0.327-2.759-0.983c-0.654-0.655-0.981-1.667-0.981-3.037V71.085h-2.512
					c-0.13,0-0.233-0.035-0.317-0.105c-0.08-0.07-0.121-0.17-0.121-0.299v-0.65l2.984-0.211l0.418-6.252
					c0.01-0.104,0.055-0.198,0.13-0.28s0.177-0.123,0.304-0.123h0.781v6.674h5.496v1.247h-5.496v11.853
					c0,0.481,0.062,0.894,0.186,1.238c0.121,0.346,0.293,0.63,0.509,0.852c0.216,0.224,0.47,0.388,0.764,0.492
					c0.293,0.105,0.607,0.159,0.948,0.159c0.423,0,0.784-0.062,1.088-0.185c0.307-0.124,0.568-0.259,0.792-0.404
					c0.222-0.146,0.403-0.282,0.543-0.403c0.141-0.124,0.252-0.185,0.335-0.185c0.094,0,0.188,0.058,0.281,0.175l0.457,0.738
					c-0.447,0.49-1.011,0.887-1.696,1.186C241.171,86.897,240.459,87.047,239.722,87.047z"/>
				<path fill="#006837" d="M250.382,63.269c0,0.212-0.044,0.408-0.133,0.589c-0.088,0.182-0.202,0.343-0.343,0.483
					c-0.141,0.14-0.304,0.252-0.49,0.333c-0.188,0.082-0.388,0.124-0.598,0.124c-0.211,0-0.41-0.042-0.598-0.124
					c-0.188-0.081-0.351-0.193-0.491-0.333c-0.14-0.141-0.252-0.302-0.335-0.483c-0.08-0.181-0.122-0.377-0.122-0.589
					c0-0.21,0.042-0.411,0.122-0.604c0.083-0.194,0.195-0.36,0.335-0.5c0.141-0.142,0.304-0.252,0.491-0.334
					s0.387-0.123,0.598-0.123c0.21,0,0.41,0.041,0.598,0.123c0.187,0.082,0.35,0.192,0.49,0.334c0.141,0.14,0.255,0.306,0.343,0.5
					C250.338,62.857,250.382,63.059,250.382,63.269z M249.645,69.294v17.473h-1.671V69.294H249.645z"/>
				<path fill="#006837" d="M267.327,71.629c-0.06,0.059-0.114,0.107-0.166,0.149c-0.052,0.041-0.128,0.061-0.221,0.061
					c-0.117,0-0.278-0.079-0.483-0.236c-0.205-0.158-0.476-0.331-0.815-0.518c-0.341-0.188-0.764-0.36-1.272-0.519
					c-0.51-0.158-1.128-0.237-1.855-0.237c-1.005,0-1.898,0.179-2.678,0.536c-0.776,0.357-1.434,0.869-1.966,1.536
					c-0.532,0.668-0.94,1.476-1.221,2.424c-0.28,0.947-0.421,2.014-0.421,3.196c0,1.229,0.143,2.317,0.432,3.266
					c0.285,0.948,0.693,1.748,1.221,2.397c0.524,0.649,1.163,1.145,1.914,1.483c0.748,0.34,1.579,0.511,2.493,0.511
					c0.842,0,1.548-0.101,2.114-0.299c0.569-0.199,1.036-0.416,1.405-0.651c0.369-0.233,0.662-0.449,0.878-0.649
					c0.219-0.198,0.39-0.298,0.52-0.298c0.15,0,0.268,0.058,0.351,0.175l0.457,0.562c-0.27,0.352-0.61,0.679-1.018,0.983
					c-0.411,0.305-0.873,0.568-1.39,0.791c-0.515,0.222-1.073,0.395-1.676,0.518c-0.603,0.122-1.233,0.185-1.889,0.185
					c-1.111,0-2.127-0.202-3.047-0.606c-0.919-0.404-1.709-0.988-2.371-1.756c-0.662-0.767-1.176-1.706-1.545-2.818
					c-0.369-1.113-0.554-2.377-0.554-3.793c0-1.336,0.177-2.553,0.527-3.653s0.862-2.049,1.538-2.845
					c0.672-0.796,1.498-1.414,2.475-1.854c0.977-0.438,2.1-0.658,3.364-0.658c1.135,0,2.146,0.182,3.028,0.544
					c0.883,0.364,1.654,0.854,2.31,1.476L267.327,71.629z"/>
				<path fill="#006837" d="M291.455,64.938c-0.104,0.199-0.258,0.299-0.455,0.299c-0.153,0-0.351-0.107-0.592-0.324
					c-0.239-0.217-0.566-0.457-0.977-0.721c-0.411-0.263-0.925-0.506-1.543-0.729c-0.616-0.223-1.377-0.334-2.281-0.334
					c-0.903,0-1.698,0.13-2.387,0.387s-1.262,0.609-1.728,1.054c-0.462,0.445-0.815,0.959-1.057,1.545s-0.361,1.2-0.361,1.845
					c0,0.843,0.18,1.538,0.538,2.089c0.355,0.551,0.828,1.019,1.415,1.405c0.585,0.386,1.252,0.711,1.995,0.975
					c0.745,0.264,1.509,0.524,2.296,0.781c0.784,0.258,1.551,0.542,2.294,0.853c0.745,0.311,1.41,0.699,1.997,1.167
					c0.585,0.469,1.058,1.046,1.416,1.73c0.355,0.685,0.535,1.536,0.535,2.555c0,1.042-0.177,2.022-0.535,2.941
					c-0.356,0.919-0.876,1.718-1.554,2.397c-0.681,0.679-1.512,1.214-2.493,1.606c-0.984,0.392-2.109,0.588-3.372,0.588
					c-1.641,0-3.052-0.289-4.233-0.868c-1.182-0.58-2.218-1.373-3.109-2.38l0.494-0.772c0.14-0.176,0.304-0.264,0.49-0.264
					c0.106,0,0.242,0.07,0.405,0.21c0.164,0.141,0.364,0.314,0.598,0.519c0.233,0.205,0.517,0.428,0.844,0.668
					c0.328,0.24,0.71,0.462,1.144,0.667s0.933,0.378,1.493,0.519c0.563,0.14,1.203,0.21,1.917,0.21c0.987,0,1.865-0.149,2.639-0.448
					c0.774-0.299,1.429-0.705,1.962-1.221c0.532-0.514,0.939-1.126,1.223-1.835c0.281-0.708,0.421-1.466,0.421-2.273
					c0-0.878-0.179-1.601-0.535-2.169c-0.358-0.568-0.831-1.042-1.418-1.423c-0.585-0.38-1.249-0.699-1.995-0.957
					c-0.745-0.257-1.509-0.509-2.296-0.754c-0.784-0.247-1.548-0.521-2.294-0.826c-0.745-0.304-1.41-0.693-1.997-1.168
					c-0.584-0.474-1.057-1.064-1.415-1.773c-0.356-0.708-0.535-1.595-0.535-2.661c0-0.831,0.158-1.633,0.475-2.405
					c0.317-0.772,0.779-1.455,1.39-2.046c0.608-0.592,1.361-1.066,2.26-1.423c0.896-0.357,1.92-0.535,3.067-0.535
					c1.291,0,2.447,0.205,3.474,0.614c1.025,0.41,1.961,1.036,2.805,1.879L291.455,64.938z"/>
				<path fill="#006837" d="M303.52,69.012c0.984,0,1.894,0.17,2.73,0.509c0.836,0.341,1.563,0.836,2.179,1.484
					c0.613,0.649,1.094,1.448,1.439,2.398c0.345,0.947,0.52,2.036,0.52,3.266c0,0.257-0.039,0.433-0.114,0.526
					c-0.078,0.095-0.197,0.142-0.361,0.142h-12.608v0.333c0,1.311,0.151,2.464,0.455,3.459c0.304,0.996,0.737,1.83,1.301,2.503
					c0.562,0.674,1.239,1.18,2.037,1.52c0.794,0.34,1.686,0.509,2.67,0.509c0.878,0,1.639-0.097,2.283-0.29
					c0.642-0.193,1.185-0.409,1.623-0.649c0.439-0.24,0.787-0.457,1.044-0.65c0.258-0.192,0.444-0.289,0.564-0.289
					c0.15,0,0.268,0.058,0.351,0.175l0.457,0.562c-0.283,0.352-0.655,0.679-1.117,0.983s-0.977,0.564-1.546,0.781
					c-0.565,0.217-1.176,0.39-1.825,0.519s-1.302,0.193-1.959,0.193c-1.192,0-2.283-0.208-3.265-0.623
					c-0.984-0.416-1.829-1.022-2.532-1.818c-0.704-0.796-1.25-1.771-1.634-2.924c-0.385-1.153-0.577-2.474-0.577-3.96
					c0-1.253,0.18-2.408,0.535-3.469c0.358-1.06,0.873-1.973,1.546-2.74c0.675-0.766,1.498-1.366,2.478-1.8
					C301.169,69.229,302.278,69.012,303.52,69.012z M303.546,70.259c-0.901,0-1.707,0.14-2.421,0.422
					c-0.712,0.28-1.33,0.685-1.85,1.212c-0.52,0.525-0.94,1.158-1.262,1.896c-0.322,0.738-0.535,1.564-0.64,2.478h11.502
					c0-0.937-0.128-1.777-0.385-2.521c-0.26-0.742-0.621-1.371-1.089-1.887c-0.467-0.516-1.028-0.91-1.683-1.186
					S304.341,70.259,303.546,70.259z"/>
				<path fill="#006837" d="M314.881,86.767V69.294h0.878c0.2,0,0.343,0.04,0.431,0.122c0.089,0.081,0.139,0.224,0.148,0.422
					l0.141,3.687c0.563-1.415,1.312-2.525,2.249-3.327c0.936-0.801,2.089-1.202,3.46-1.202c0.524,0,1.011,0.056,1.457,0.166
					c0.444,0.111,0.865,0.272,1.265,0.483l-0.229,1.158c-0.036,0.188-0.153,0.282-0.353,0.282c-0.07,0-0.169-0.023-0.297-0.07
					c-0.13-0.047-0.291-0.101-0.482-0.158c-0.195-0.059-0.432-0.112-0.712-0.159s-0.603-0.069-0.966-0.069
					c-1.322,0-2.408,0.41-3.258,1.229s-1.537,2.001-2.064,3.547v11.362H314.881z"/>
				<path fill="#006837" d="M335.271,86.767h-1.476l-7.376-17.473h1.316c0.164,0,0.296,0.043,0.396,0.131
					c0.101,0.088,0.174,0.185,0.221,0.29l5.761,13.785c0.117,0.27,0.202,0.527,0.263,0.773c0.06,0.245,0.116,0.49,0.176,0.737
					c0.058-0.247,0.12-0.495,0.185-0.747c0.062-0.252,0.148-0.506,0.255-0.764l5.795-13.785c0.057-0.129,0.138-0.231,0.236-0.309
					c0.099-0.075,0.221-0.112,0.361-0.112h1.262L335.271,86.767z"/>
				<path fill="#006837" d="M348.826,63.269c0,0.212-0.044,0.408-0.132,0.589c-0.086,0.182-0.2,0.343-0.341,0.483
					c-0.143,0.14-0.307,0.252-0.493,0.333c-0.187,0.082-0.385,0.124-0.598,0.124c-0.21,0-0.407-0.042-0.595-0.124
					c-0.189-0.081-0.354-0.193-0.493-0.333c-0.141-0.141-0.252-0.302-0.333-0.483c-0.083-0.181-0.124-0.377-0.124-0.589
					c0-0.21,0.041-0.411,0.124-0.604c0.081-0.194,0.192-0.36,0.333-0.5c0.14-0.142,0.304-0.252,0.493-0.334
					c0.188-0.082,0.385-0.123,0.595-0.123c0.213,0,0.411,0.041,0.598,0.123s0.351,0.192,0.493,0.334
					c0.141,0.14,0.255,0.306,0.341,0.5C348.782,62.857,348.826,63.059,348.826,63.269z M348.089,69.294v17.473h-1.667V69.294
					H348.089z"/>
				<path fill="#006837" d="M365.774,71.629c-0.06,0.059-0.114,0.107-0.169,0.149c-0.052,0.041-0.124,0.061-0.218,0.061
					c-0.117,0-0.278-0.079-0.483-0.236c-0.205-0.158-0.478-0.331-0.817-0.518c-0.338-0.188-0.764-0.36-1.273-0.519
					c-0.509-0.158-1.127-0.237-1.852-0.237c-1.008,0-1.898,0.179-2.678,0.536s-1.435,0.869-1.967,1.536
					c-0.532,0.668-0.94,1.476-1.221,2.424c-0.28,0.947-0.421,2.014-0.421,3.196c0,1.229,0.143,2.317,0.429,3.266
					c0.288,0.948,0.693,1.748,1.221,2.397s1.166,1.145,1.915,1.483c0.748,0.34,1.581,0.511,2.493,0.511
					c0.844,0,1.548-0.101,2.116-0.299c0.566-0.199,1.037-0.416,1.406-0.651c0.368-0.233,0.659-0.449,0.877-0.649
					c0.216-0.198,0.39-0.298,0.518-0.298c0.153,0,0.27,0.058,0.351,0.175l0.457,0.562c-0.271,0.352-0.608,0.679-1.019,0.983
					s-0.872,0.568-1.387,0.791c-0.515,0.222-1.075,0.395-1.678,0.518c-0.603,0.122-1.231,0.185-1.889,0.185
					c-1.111,0-2.127-0.202-3.047-0.606c-0.917-0.404-1.709-0.988-2.369-1.756c-0.662-0.767-1.176-1.706-1.545-2.818
					c-0.369-1.113-0.553-2.377-0.553-3.793c0-1.336,0.174-2.553,0.526-3.653c0.351-1.101,0.862-2.049,1.535-2.845
					s1.499-1.414,2.476-1.854c0.979-0.438,2.099-0.658,3.363-0.658c1.136,0,2.146,0.182,3.029,0.544
					c0.886,0.364,1.654,0.854,2.312,1.476L365.774,71.629z"/>
				<path fill="#006837" d="M376.837,69.012c0.984,0,1.894,0.17,2.73,0.509c0.836,0.341,1.563,0.836,2.179,1.484
					c0.613,0.649,1.094,1.448,1.439,2.398c0.346,0.947,0.52,2.036,0.52,3.266c0,0.257-0.039,0.433-0.114,0.526
					c-0.078,0.095-0.197,0.142-0.361,0.142h-12.608v0.333c0,1.311,0.151,2.464,0.455,3.459c0.304,0.996,0.737,1.83,1.301,2.503
					c0.562,0.674,1.239,1.18,2.037,1.52c0.795,0.34,1.686,0.509,2.67,0.509c0.878,0,1.639-0.097,2.283-0.29
					c0.642-0.193,1.185-0.409,1.623-0.649c0.439-0.24,0.787-0.457,1.045-0.65c0.257-0.192,0.443-0.289,0.563-0.289
					c0.15,0,0.268,0.058,0.351,0.175l0.457,0.562c-0.283,0.352-0.654,0.679-1.117,0.983c-0.462,0.305-0.977,0.564-1.545,0.781
					c-0.566,0.217-1.177,0.39-1.826,0.519s-1.302,0.193-1.959,0.193c-1.191,0-2.283-0.208-3.265-0.623
					c-0.984-0.416-1.829-1.022-2.532-1.818c-0.704-0.796-1.25-1.771-1.634-2.924c-0.385-1.153-0.577-2.474-0.577-3.96
					c0-1.253,0.18-2.408,0.535-3.469c0.358-1.06,0.873-1.973,1.546-2.74c0.675-0.766,1.499-1.366,2.478-1.8
					C374.486,69.229,375.596,69.012,376.837,69.012z M376.863,70.259c-0.901,0-1.707,0.14-2.421,0.422
					c-0.712,0.28-1.33,0.685-1.85,1.212c-0.52,0.525-0.94,1.158-1.262,1.896c-0.322,0.738-0.535,1.564-0.64,2.478h11.502
					c0-0.937-0.127-1.777-0.385-2.521c-0.26-0.742-0.621-1.371-1.088-1.887c-0.468-0.516-1.029-0.91-1.684-1.186
					S377.658,70.259,376.863,70.259z"/>
				<path fill="#006837" d="M397.822,71.471c-0.081,0.165-0.211,0.246-0.388,0.246c-0.127,0-0.296-0.073-0.498-0.219
					c-0.206-0.147-0.476-0.311-0.809-0.493c-0.335-0.182-0.745-0.345-1.23-0.492c-0.486-0.145-1.078-0.219-1.782-0.219
					c-0.631,0-1.208,0.091-1.729,0.271c-0.52,0.182-0.967,0.423-1.335,0.727c-0.369,0.305-0.655,0.657-0.86,1.061
					c-0.205,0.402-0.307,0.825-0.307,1.27c0,0.548,0.141,1.004,0.421,1.366c0.281,0.361,0.649,0.671,1.106,0.928
					s0.975,0.479,1.554,0.666s1.174,0.374,1.784,0.562c0.608,0.187,1.202,0.395,1.782,0.623c0.579,0.229,1.096,0.512,1.553,0.852
					c0.457,0.339,0.826,0.755,1.106,1.247c0.28,0.491,0.421,1.088,0.421,1.791c0,0.761-0.138,1.469-0.413,2.125
					c-0.275,0.655-0.673,1.223-1.192,1.703c-0.521,0.48-1.163,0.86-1.924,1.142c-0.762,0.281-1.627,0.421-2.598,0.421
					c-1.231,0-2.291-0.196-3.18-0.588c-0.891-0.393-1.686-0.904-2.39-1.536l0.405-0.598c0.058-0.094,0.122-0.164,0.192-0.211
					s0.171-0.07,0.299-0.07c0.153,0,0.34,0.094,0.563,0.281c0.221,0.188,0.512,0.39,0.867,0.606
					c0.358,0.217,0.803,0.418,1.336,0.605c0.532,0.188,1.191,0.281,1.977,0.281c0.737,0,1.387-0.103,1.947-0.308
					c0.564-0.204,1.031-0.483,1.405-0.834c0.374-0.352,0.66-0.764,0.853-1.237c0.191-0.476,0.291-0.976,0.291-1.503
					c0-0.584-0.141-1.07-0.424-1.457c-0.28-0.386-0.649-0.714-1.106-0.983c-0.454-0.269-0.974-0.497-1.554-0.686
					c-0.579-0.187-1.176-0.374-1.792-0.561c-0.612-0.188-1.21-0.393-1.789-0.614c-0.579-0.224-1.099-0.504-1.556-0.845
					c-0.455-0.339-0.824-0.752-1.107-1.237c-0.28-0.486-0.42-1.091-0.42-1.817c0-0.62,0.135-1.218,0.404-1.792
					c0.268-0.572,0.652-1.076,1.151-1.511c0.496-0.433,1.101-0.777,1.815-1.035c0.714-0.258,1.517-0.387,2.408-0.387
					c1.064,0,2.01,0.154,2.836,0.464c0.823,0.308,1.582,0.78,2.272,1.416L397.822,71.471z"/>
			</g>
		</g>
	</g>
	
		<use xlink:href="#New_Symbol_2"  width="178" height="203.477" id="XMLID_1_" x="-89" y="-101.477" transform="matrix(0.5843 0 0 -0.5843 52.0029 59.5986)" overflow="visible"/>
</g>
</svg>
